<svg width="112" height="35" viewBox="0 0 112 35" fill="none" xmlns="http://www.w3.org/2000/svg">
<path d="M34.5943 24.1064V9.56099H44.3954V12.0965H37.6696V15.5624H43.8912V18.0979H37.6696V21.5709H44.4238V24.1064H34.5943ZM51.7125 24.3195C50.5951 24.3195 49.6339 24.0828 48.829 23.6093C48.0288 23.1311 47.4133 22.4682 46.9824 21.6206C46.5563 20.7731 46.3432 19.7977 46.3432 18.6945C46.3432 17.5771 46.5587 16.597 46.9895 15.7542C47.4251 14.9066 48.043 14.2461 48.8432 13.7726C49.6434 13.2944 50.5951 13.0553 51.6983 13.0553C52.65 13.0553 53.4834 13.2281 54.1983 13.5738C54.9133 13.9194 55.4791 14.4047 55.8958 15.0297C56.3124 15.6547 56.5421 16.3886 56.5847 17.2314H53.7296C53.6491 16.6869 53.436 16.249 53.0904 15.9175C52.7495 15.5814 52.302 15.4133 51.748 15.4133C51.2793 15.4133 50.8697 15.5411 50.5194 15.7968C50.1737 16.0477 49.9038 16.4147 49.7097 16.8976C49.5156 17.3806 49.4185 17.9653 49.4185 18.6519C49.4185 19.3479 49.5132 19.9398 49.7026 20.4275C49.8967 20.9152 50.169 21.2868 50.5194 21.5425C50.8697 21.7982 51.2793 21.926 51.748 21.926C52.0937 21.926 52.4038 21.855 52.6784 21.713C52.9578 21.5709 53.1874 21.365 53.3674 21.0951C53.552 20.8205 53.6728 20.4914 53.7296 20.1079H56.5847C56.5373 20.9412 56.3101 21.6751 55.9029 22.3096C55.5004 22.9393 54.9441 23.4317 54.2338 23.7868C53.5236 24.142 52.6832 24.3195 51.7125 24.3195ZM63.4508 24.3195C62.3476 24.3195 61.3935 24.0851 60.5886 23.6164C59.7884 23.1429 59.1705 22.4848 58.7349 21.642C58.2993 20.7944 58.0815 19.8119 58.0815 18.6945C58.0815 17.5676 58.2993 16.5828 58.7349 15.74C59.1705 14.8924 59.7884 14.2343 60.5886 13.7655C61.3935 13.2921 62.3476 13.0553 63.4508 13.0553C64.554 13.0553 65.5057 13.2921 66.3059 13.7655C67.1109 14.2343 67.7311 14.8924 68.1667 15.74C68.6023 16.5828 68.8201 17.5676 68.8201 18.6945C68.8201 19.8119 68.6023 20.7944 68.1667 21.642C67.7311 22.4848 67.1109 23.1429 66.3059 23.6164C65.5057 24.0851 64.554 24.3195 63.4508 24.3195ZM63.465 21.9758C63.9669 21.9758 64.3859 21.8337 64.7221 21.5496C65.0583 21.2608 65.3116 20.8678 65.4821 20.3706C65.6573 19.8735 65.7449 19.3077 65.7449 18.6732C65.7449 18.0387 65.6573 17.4729 65.4821 16.9758C65.3116 16.4786 65.0583 16.0856 64.7221 15.7968C64.3859 15.508 63.9669 15.3635 63.465 15.3635C62.9584 15.3635 62.5323 15.508 62.1866 15.7968C61.8457 16.0856 61.5877 16.4786 61.4125 16.9758C61.242 17.4729 61.1568 18.0387 61.1568 18.6732C61.1568 19.3077 61.242 19.8735 61.4125 20.3706C61.5877 20.8678 61.8457 21.2608 62.1866 21.5496C62.5323 21.8337 62.9584 21.9758 63.465 21.9758ZM73.813 9.56099V24.1064H70.7875V9.56099H73.813ZM81.1657 24.3195C80.0624 24.3195 79.1084 24.0851 78.3034 23.6164C77.5033 23.1429 76.8854 22.4848 76.4498 21.642C76.0141 20.7944 75.7963 19.8119 75.7963 18.6945C75.7963 17.5676 76.0141 16.5828 76.4498 15.74C76.8854 14.8924 77.5033 14.2343 78.3034 13.7655C79.1084 13.2921 80.0624 13.0553 81.1657 13.0553C82.2689 13.0553 83.2206 13.2921 84.0208 13.7655C84.8257 14.2343 85.446 14.8924 85.8816 15.74C86.3172 16.5828 86.535 17.5676 86.535 18.6945C86.535 19.8119 86.3172 20.7944 85.8816 21.642C85.446 22.4848 84.8257 23.1429 84.0208 23.6164C83.2206 24.0851 82.2689 24.3195 81.1657 24.3195ZM81.1799 21.9758C81.6818 21.9758 82.1008 21.8337 82.437 21.5496C82.7731 21.2608 83.0265 20.8678 83.1969 20.3706C83.3721 19.8735 83.4597 19.3077 83.4597 18.6732C83.4597 18.0387 83.3721 17.4729 83.1969 16.9758C83.0265 16.4786 82.7731 16.0856 82.437 15.7968C82.1008 15.508 81.6818 15.3635 81.1799 15.3635C80.6732 15.3635 80.2471 15.508 79.9015 15.7968C79.5605 16.0856 79.3025 16.4786 79.1273 16.9758C78.9569 17.4729 78.8716 18.0387 78.8716 18.6732C78.8716 19.3077 78.9569 19.8735 79.1273 20.3706C79.3025 20.8678 79.5605 21.2608 79.9015 21.5496C80.2471 21.8337 80.6732 21.9758 81.1799 21.9758ZM93.4171 28.4246C92.437 28.4246 91.5965 28.2897 90.8958 28.0198C90.1998 27.7546 89.6458 27.3924 89.2338 26.9331C88.8219 26.4739 88.5544 25.9578 88.4313 25.3849L91.2296 25.0084C91.3148 25.2262 91.4498 25.4298 91.6344 25.6192C91.8191 25.8086 92.0629 25.9601 92.3659 26.0738C92.6737 26.1921 93.0478 26.2513 93.4881 26.2513C94.1462 26.2513 94.6884 26.0903 95.1145 25.7684C95.5454 25.4511 95.7608 24.9185 95.7608 24.1704V22.1746H95.633C95.5004 22.4777 95.3016 22.7641 95.0364 23.034C94.7712 23.3039 94.4303 23.5241 94.0137 23.6945C93.597 23.865 93.0998 23.9502 92.5222 23.9502C91.7031 23.9502 90.9573 23.7608 90.285 23.382C89.6174 22.9985 89.0847 22.4137 88.687 21.6278C88.294 20.837 88.0975 19.838 88.0975 18.6306C88.0975 17.3948 88.2987 16.3626 88.7012 15.534C89.1036 14.7054 89.6387 14.0851 90.3063 13.6732C90.9786 13.2613 91.7149 13.0553 92.5151 13.0553C93.1259 13.0553 93.6373 13.1595 94.0492 13.3678C94.4611 13.5714 94.7926 13.8271 95.0435 14.1349C95.2992 14.4379 95.4957 14.7362 95.633 15.0297H95.7466V13.1974H98.7509V24.213C98.7509 25.141 98.5236 25.9175 98.0691 26.5425C97.6145 27.1675 96.9848 27.6363 96.1799 27.9488C95.3797 28.266 94.4587 28.4246 93.4171 28.4246ZM93.481 21.6775C93.9687 21.6775 94.3806 21.5567 94.7168 21.3153C95.0577 21.069 95.3181 20.7187 95.498 20.2641C95.6827 19.8048 95.775 19.2556 95.775 18.6164C95.775 17.9772 95.6851 17.4232 95.5051 16.9545C95.3252 16.481 95.0648 16.114 94.7239 15.8536C94.383 15.5932 93.9687 15.463 93.481 15.463C92.9838 15.463 92.5648 15.5979 92.2239 15.8678C91.883 16.133 91.6249 16.5023 91.4498 16.9758C91.2746 17.4492 91.187 17.9961 91.187 18.6164C91.187 19.2461 91.2746 19.7906 91.4498 20.2499C91.6297 20.7045 91.8877 21.0572 92.2239 21.3081C92.5648 21.5544 92.9838 21.6775 93.481 21.6775ZM103.026 28.1974C102.643 28.1974 102.283 28.1666 101.947 28.105C101.615 28.0482 101.341 27.9748 101.123 27.8849L101.805 25.6263C102.16 25.7352 102.48 25.7944 102.764 25.8039C103.052 25.8134 103.301 25.7471 103.509 25.605C103.722 25.463 103.895 25.2215 104.028 24.8806L104.205 24.4189L100.292 13.1974H103.474L105.732 21.2087H105.846L108.126 13.1974H111.329L107.089 25.2854C106.885 25.8725 106.608 26.3839 106.258 26.8195C105.912 27.2599 105.474 27.5984 104.944 27.8351C104.414 28.0766 103.775 28.1974 103.026 28.1974Z" fill="#17C690"/>
<path d="M10.0119 30.7112C9.43809 30.7482 9.02505 32.4205 7.63282 31.6167C7.5018 30.0447 7.91641 26.8769 8.37545 25.6225C6.51975 23.9755 4.56977 18.6183 10.2203 12.3221C17.2835 4.45187 23.5629 3.79531 23.9308 4.07676C24.2987 4.35822 21.0782 10.5104 20.1442 18.6733C19.3971 25.2036 13.6048 26.8229 10.8021 26.8163C10.9161 25.662 11.2816 23.1841 11.8315 22.507C12.5008 21.6832 15.8126 19.1121 16.7863 18.8643C15.8271 19.0632 13.7506 19.6827 12.5399 20.706C12.7932 19.54 13.4771 17.0617 14.1862 16.4766C15.0697 15.7475 18.3673 13.4614 18.8812 13.3893C17.9004 13.5158 15.7678 13.9661 15.0437 14.7616C16.222 12.7584 18.797 8.61483 19.8528 7.74884C18.1847 9.05579 14.5208 12.5788 12.6934 16.6507C12.347 16.1514 11.843 14.5436 12.5987 12.1068C11.8642 13.7086 10.6333 17.3813 11.5862 19.2575C10.9146 20.8035 9.57507 24.1188 9.59005 25.0115C9.31021 26.1852 9.0028 28.9683 10.0119 30.7112Z" fill="#17C690"/>
</svg>
